<?xml version="1.0" encoding="utf-8"?>
<!-- Generator: Adobe Illustrator 20.1.0, SVG Export Plug-In . SVG Version: 6.00 Build 0)  -->
<svg version="1.1" id="Layer_1" xmlns="http://www.w3.org/2000/svg" xmlns:xlink="http://www.w3.org/1999/xlink" x="0px" y="0px"
	 width="220px" height="280px" viewBox="0 0 220 280" enable-background="new 0 0 220 280" xml:space="preserve">
<g>
	<g>
		<path fill="#BE1E2D" d="M88.1,115.4l82.3-49.5v130.3H5.8V65.9L88.1,115.4z"/>
		<path fill="#F05A28" d="M132.7,196l82.3-49.5v130.3H50.4V146.5L132.7,196z"/>
	</g>
	<g>
		<g>
			<path fill="#F05A28" d="M85.8,3.5c0,0-45.7,49.6-21.4,90.4c0,0-7.8-33,21.4-50.5c29.2,17.5,21.4,50.5,21.4,50.5
				C131.5,53.1,85.8,3.5,85.8,3.5z"/>
			<path fill="#F05A28" d="M87.3,68.6c0,0,2.9,6.8,0,12.9c0,0-3.4,4.4-7.8-2.2c0,0-10.2,10.2,0,17.7c10.2,7.5,18.2-5.1,18.2-5.1
				S102.6,77.6,87.3,68.6z"/>
		</g>
	</g>
	<g>
		<path fill="#F2E9E8" d="M133.8,92.2c0,0-40.9,44.3-19.1,80.9c0,0-7-29.6,19.1-45.2c26.1,15.6,19.1,45.2,19.1,45.2
			C174.7,136.6,133.8,92.2,133.8,92.2z"/>
		<path fill="#F2E9E8" d="M135.1,150.5c0,0,2.6,6.1,0,11.5c0,0-3,3.9-7-2c0,0-9.1,9.1,0,15.9s16.3-4.6,16.3-4.6
			S148.8,158.5,135.1,150.5z"/>
	</g>
	<g>
		<path fill="#FFFFFF" d="M74,258.3c-0.9,0.6-1.8,1-2.8,1.3c-1,0.3-2,0.4-3,0.4c-1.5,0-2.9-0.3-4.2-0.9s-2.5-1.4-3.5-2.4
			c-1-1-1.8-2.2-2.3-3.6c-0.6-1.4-0.9-2.9-0.9-4.4s0.3-3.1,0.9-4.4c0.6-1.4,1.4-2.6,2.3-3.6c1-1,2.1-1.8,3.5-2.4s2.7-0.9,4.2-0.9
			c1.1,0,2.2,0.2,3.2,0.5c1,0.3,2,0.8,2.8,1.4l-5.6,9.8L74,258.3z"/>
		<path fill="#FFFFFF" d="M97.3,259.5H75.7l10.7-21.7L97.3,259.5z"/>
		<path fill="#FFFFFF" d="M113,255.4v4.1H98.7v-21.7l8,4.9v-4.9h13.8v21.7L113,255.4z"/>
		<path fill="#FFFFFF" d="M122.1,259.5v-21.7h11.1c1.4,0,2.8,0.3,4,0.8c1.3,0.6,2.4,1.3,3.3,2.3c0.9,1,1.7,2.1,2.2,3.5
			c0.5,1.3,0.8,2.7,0.8,4.2c0,1.5-0.3,2.9-0.8,4.2c-0.5,1.3-1.3,2.5-2.2,3.5c-0.9,1-2.1,1.8-3.3,2.3c-1.3,0.6-2.6,0.8-4,0.8H122.1z"
			/>
		<path fill="#FFFFFF" d="M145,237.8h11.4v10.8h10.9v10.9l-22.4,0V237.8z"/>
		<path fill="#FFFFFF" d="M190.6,237.9v5.3h-5v11.4h5v5h-21.7v-21.7H190.6z"/>
		<path fill="#FFFFFF" d="M207.5,246.6c0.5,1.2,0.8,2.5,0.9,3.7c0.1,1.2-0.1,2.5-0.5,3.6c-0.4,1.2-1.1,2.2-2,3.1
			c-0.9,0.9-1.9,1.6-3.1,2c-1.2,0.4-2.4,0.6-3.6,0.5c-1.2-0.1-2.5-0.3-3.7-0.9c-1.2-0.5-2.4-1.3-3.4-2.2l3.4-3.4
			c-0.9-0.9-1.5-2-2-3.1c-0.5-1.1-0.7-2.3-0.7-3.4c0-1.2,0.2-2.3,0.6-3.4c0.4-1.1,1-2.1,1.9-2.9c0.9-0.8,1.8-1.5,2.9-1.9
			c1.1-0.4,2.2-0.6,3.4-0.6c1.2,0,2.3,0.3,3.4,0.7c1.1,0.5,2.2,1.1,3.1,2l-2.7,2.8C206.3,244.2,207,245.4,207.5,246.6z"/>
	</g>
</g>
<g>
</g>
<g>
</g>
<g>
</g>
<g>
</g>
<g>
</g>
<g>
</g>
<g>
</g>
<g>
</g>
<g>
</g>
<g>
</g>
<g>
</g>
<g>
</g>
<g>
</g>
<g>
</g>
<g>
</g>
</svg>
